# xmcd
# Copyright (C) 1995-1998 Ti Kan
#
# Track frame offsets:
#       150
#       20100
#       38295
#       55995
#       70695
#       84795
#       98895
#       114645
#       130620
#       150645
#       171570
#       186645
#       203295
#       217995
#       230220
#       247605
#       266355
#
# Disc length: 3808 seconds
#
# Revision: 16
# Processed by: cddbd v1.5.2PL0 Copyright (c) Steve Scherf et al.
# Submitted via: CD-Transfer v1.0
#
DISCID=dc0ede11
DTITLE=Solange - 
DYEAR=2008
DGENRE=
TTITLE0=Vengeance Is Mine
TTITLE1=Pretendo Hablarte
TTITLE2=Letter From God To Man
TTITLE3=Underground
TTITLE4=Hot Summer Night
TTITLE5=A Higher Love (Radio Edit)
TTITLE6=Dawn Of The Dead
TTITLE7=Stepping Stone
TTITLE8=I Want You
TTITLE9=Mein Freund (Radio Mix Extended)
TTITLE10=Forever (Radio Edit)
TTITLE11=Strenght In Numbers
TTITLE12=Saturday Night
TTITLE13=Chime
TTITLE14=Out Of Our Heads
TTITLE15=Daryl
TTITLE16=I Decided (Radio Mix)
EXTD=
EXTT0=
EXTT1=
EXTT2=
EXTT3=
EXTT4=
EXTT5=
EXTT6=
EXTT7=
EXTT8=
EXTT9=
EXTT10=
EXTT11=
EXTT12=
EXTT13=
EXTT14=
EXTT15=
EXTT16=
PLAYORDER=
